<?xml version="1.0" standalone="no"?>
<!DOCTYPE svg PUBLIC "-//W3C//DTD SVG 20010904//EN"
 "http://www.w3.org/TR/2001/REC-SVG-20010904/DTD/svg10.dtd">
<svg version="1.0" xmlns="http://www.w3.org/2000/svg"
 width="5595.000000pt" height="632.000000pt" viewBox="0 0 5595.000000 632.000000"
 preserveAspectRatio="xMidYMid meet">

<g transform="translate(0.000000,632.000000) scale(0.100000,-0.100000)"
fill="#000000" stroke="none">
<path d="M2960 6300 c-314 -24 -662 -101 -927 -206 -143 -56 -393 -180 -523
-259 -376 -228 -736 -576 -987 -955 -694 -1048 -694 -2422 2 -3465 173 -261
349 -461 565 -647 462 -397 1016 -653 1595 -739 106 -15 185 -19 425 -19 453
1 581 14 875 95 485 133 956 395 1318 733 396 369 675 805 847 1322 124 373
156 603 147 1063 -7 382 -36 575 -129 865 -97 304 -212 544 -383 802 -480 722
-1266 1233 -2105 1369 -233 38 -537 55 -720 41z m307 -1480 c17 -10 37 -29 44
-42 16 -28 27 -440 28 -1050 l1 -428 518 -1 c562 0 912 -10 954 -27 54 -22 82
-118 57 -191 -23 -65 -14 -64 -629 -72 -305 -4 -634 -8 -731 -8 l-176 -1 -7
-747 c-5 -412 -11 -766 -15 -787 -5 -34 -13 -43 -50 -63 -54 -28 -92 -29 -140
-2 -69 38 -64 -12 -75 832 l-9 767 -186 1 c-102 1 -442 4 -756 8 -651 8 -630
5 -660 85 -34 89 8 167 100 187 31 6 326 12 777 16 l727 5 3 719 c3 710 3 718
24 746 52 71 136 93 201 53z"/>
<path d="M49610 5186 c-106 -23 -195 -90 -243 -181 -32 -59 -31 -201 1 -267
31 -63 92 -121 160 -155 50 -25 68 -28 152 -28 79 0 103 4 142 24 120 59 192
163 192 280 1 99 -26 164 -93 232 -85 85 -200 120 -311 95z"/>
<path d="M21753 5166 c-64 -30 -136 -95 -171 -155 -24 -41 -27 -56 -27 -136 1
-67 5 -100 19 -128 28 -58 98 -129 158 -162 49 -27 61 -29 158 -29 98 -1 109
1 158 29 72 39 146 122 167 186 25 74 17 182 -18 242 -37 62 -127 142 -183
161 -75 25 -197 21 -261 -8z"/>
<path d="M8760 3185 l0 -1865 1180 0 1180 0 0 240 0 240 -900 0 -900 0 0 575
0 575 825 0 825 0 0 240 0 240 -825 0 -825 0 0 565 0 565 890 0 890 0 0 245 0
245 -1170 0 -1170 0 0 -1865z"/>
<path d="M20460 3185 l0 -1865 270 0 270 0 0 1865 0 1865 -270 0 -270 0 0
-1865z"/>
<path d="M28630 3185 l0 -1865 270 0 270 0 1 1333 c0 732 4 1340 8 1350 6 15
10 12 24 -19 54 -112 260 -610 737 -1779 166 -407 315 -773 332 -813 l30 -72
220 2 220 3 377 925 c562 1377 719 1751 738 1757 15 5 23 -615 23 -1719 l0
-968 265 0 265 0 -2 1863 -3 1862 -338 0 -339 0 -23 -55 c-12 -30 -197 -480
-410 -1000 -371 -907 -639 -1554 -722 -1745 -22 -50 -46 -91 -54 -93 -20 -4
-6 -38 -877 2088 l-330 805 -341 3 -341 2 0 -1865z"/>
<path d="M55390 4383 c0 -368 -3 -678 -6 -690 -4 -13 -10 -23 -14 -23 -4 0
-40 44 -81 98 -131 175 -265 283 -421 340 -72 27 -78 27 -313 26 -236 0 -242
-1 -325 -28 -298 -99 -524 -292 -667 -572 -89 -172 -139 -347 -162 -556 -15
-136 -13 -453 3 -578 55 -414 255 -764 546 -959 161 -107 334 -160 560 -168
347 -13 569 91 766 358 77 106 101 132 114 124 6 -4 10 -94 10 -221 l0 -214
270 0 270 0 -2 1863 -3 1862 -272 3 -273 2 0 -667z m-520 -718 c215 -65 379
-237 463 -485 38 -113 55 -211 63 -360 22 -457 -109 -822 -354 -983 -130 -86
-261 -114 -445 -97 -130 13 -210 39 -304 102 -176 118 -296 346 -344 653 -18
115 -15 369 5 485 34 188 102 351 196 467 141 174 315 248 560 238 58 -2 130
-11 160 -20z"/>
<path d="M22968 4453 l-3 -338 -207 -3 -208 -2 0 -215 0 -215 205 0 c113 0
206 -1 207 -2 1 -2 5 -412 9 -913 4 -608 10 -927 18 -960 21 -97 79 -194 171
-286 73 -74 100 -93 190 -137 153 -76 202 -86 410 -86 189 0 307 15 342 44
l22 17 -23 109 c-12 60 -34 157 -48 216 l-25 108 -41 -8 c-23 -4 -89 -7 -147
-7 -97 0 -110 3 -172 32 -72 34 -118 85 -139 152 -15 51 -30 740 -27 1271 l3
445 288 3 287 2 0 215 0 215 -287 2 -288 3 -3 338 -2 337 -265 0 -265 0 -2
-337z"/>
<path d="M38680 4450 l0 -340 -205 0 -205 0 0 -215 0 -215 204 0 204 0 5 -892
c5 -999 2 -948 79 -1108 33 -68 57 -101 127 -170 71 -71 102 -94 181 -133 124
-61 194 -76 375 -84 153 -6 233 2 343 33 l54 15 -7 50 c-4 27 -24 127 -44 221
-36 169 -38 173 -62 171 -13 -2 -82 -4 -154 -5 -115 -1 -136 1 -180 21 -60 27
-100 63 -127 115 -32 62 -37 217 -38 1024 l0 742 285 0 285 0 0 215 0 215
-285 0 -285 0 0 333 0 334 -167 6 c-91 4 -215 7 -275 7 l-108 0 0 -340z"/>
<path d="M44300 4150 c-85 -12 -196 -50 -279 -96 -98 -55 -234 -196 -290 -303
-31 -59 -46 -79 -52 -70 -5 8 -9 107 -9 222 l0 207 -265 0 -265 0 0 -1395 0
-1395 275 0 275 0 0 908 0 908 24 72 c36 106 73 168 145 244 70 75 143 124
247 165 67 27 75 28 259 28 105 0 209 -4 233 -8 l42 -7 0 254 c0 140 -4 257
-8 260 -16 10 -270 14 -332 6z"/>
<path d="M18595 4140 c-172 -15 -379 -77 -524 -156 -134 -74 -258 -191 -351
-332 -57 -87 -107 -199 -94 -211 8 -7 377 -91 464 -105 34 -5 36 -3 65 46 17
28 66 88 110 133 66 68 95 90 165 123 104 50 208 72 337 72 178 0 303 -41 396
-129 93 -88 139 -205 140 -352 1 -132 -45 -184 -192 -214 -38 -8 -177 -29
-308 -45 -663 -85 -890 -156 -1074 -340 -158 -157 -196 -275 -186 -583 5 -178
14 -216 82 -346 78 -148 196 -259 360 -337 157 -75 212 -86 440 -91 238 -6
330 7 455 61 166 73 290 173 380 306 l45 65 7 -45 c3 -25 7 -111 7 -192 l1
-148 269 0 270 0 -5 892 c-6 1050 -12 1203 -49 1315 -112 333 -372 535 -770
598 -117 18 -326 25 -440 15z m705 -1696 c0 -215 -1 -229 -25 -301 -57 -170
-157 -284 -323 -367 -100 -50 -165 -65 -322 -72 -110 -6 -151 -4 -213 10 -153
34 -275 118 -323 221 -21 43 -24 65 -24 165 0 137 13 173 90 254 60 64 159
116 272 145 41 11 196 38 344 61 274 42 415 70 469 95 57 26 55 33 55 -211z"/>
<path d="M34020 4140 c-381 -28 -707 -204 -884 -477 -69 -106 -119 -216 -103
-224 13 -8 284 -67 419 -92 l77 -14 42 63 c56 87 184 206 262 243 107 52 175
66 342 66 156 0 220 -12 306 -55 56 -29 142 -113 172 -169 56 -102 74 -287 37
-369 -35 -76 -103 -96 -510 -147 -672 -84 -912 -170 -1095 -393 -95 -115 -132
-222 -142 -403 -20 -393 146 -674 486 -819 146 -63 194 -72 418 -77 223 -6
293 4 428 57 169 67 290 164 405 326 l35 49 3 -192 2 -193 270 0 270 0 -1 828
c0 1003 -8 1257 -39 1357 -102 324 -344 533 -707 609 -77 17 -284 37 -353 34
-25 0 -88 -4 -140 -8z m680 -1938 c-12 -66 -75 -201 -122 -259 -71 -89 -225
-187 -351 -220 -94 -26 -372 -25 -447 1 -138 47 -230 119 -277 214 -23 48 -27
68 -27 151 -1 131 15 180 81 252 121 130 192 152 788 245 127 19 298 60 333
78 l27 14 3 -211 c1 -115 -2 -235 -8 -265z"/>
<path d="M46183 4140 c-262 -30 -462 -165 -603 -408 -28 -50 -45 -71 -52 -64
-6 6 -13 102 -16 226 l-5 216 -259 0 -258 0 2 -1392 3 -1393 266 -3 266 -2 6
562 c4 310 7 731 7 936 l0 372 33 85 c47 118 92 188 164 255 256 240 689 180
835 -117 l32 -65 7 -336 c4 -186 8 -642 8 -1014 l1 -678 269 0 269 0 4 958 c5
947 5 958 26 1022 58 174 180 302 335 352 85 28 285 30 372 4 188 -56 311
-188 336 -359 5 -34 9 -493 9 -1019 l0 -958 275 0 275 0 0 943 c0 518 -5 997
-10 1065 -23 294 -108 478 -293 633 -76 64 -194 129 -277 153 -82 24 -292 37
-408 26 -282 -27 -545 -188 -676 -413 -21 -37 -43 -67 -48 -67 -5 0 -17 14
-26 31 -33 61 -94 153 -130 196 -86 105 -251 207 -382 237 -82 19 -262 27
-357 16z"/>
<path d="M51792 4139 c-264 -25 -475 -157 -626 -392 -31 -48 -60 -87 -65 -87
-17 0 -21 47 -21 248 l0 202 -260 0 -260 0 2 -1392 3 -1393 268 -3 267 -2 1
172 c0 95 4 511 9 923 8 833 6 803 78 939 44 83 154 200 227 240 28 15 84 39
125 53 66 23 92 26 210 27 111 0 147 -4 205 -22 173 -53 317 -203 365 -381 23
-85 29 -345 30 -1143 l0 -808 276 0 276 0 -5 938 c-3 620 -9 969 -16 1032 -33
269 -120 460 -277 611 -156 148 -315 219 -537 239 -124 11 -155 11 -275 -1z"/>
<path d="M12495 4129 c-395 -91 -706 -387 -840 -799 -63 -195 -76 -281 -82
-541 -7 -276 4 -408 48 -577 116 -452 377 -760 751 -888 218 -74 515 -72 719
5 130 49 272 172 385 331 33 47 67 86 76 88 20 4 28 -243 28 -940 l0 -538 265
0 265 0 0 1920 0 1920 -260 0 -260 0 0 -220 0 -220 -25 0 c-19 0 -36 15 -70
63 -169 234 -324 352 -512 392 -77 17 -421 19 -488 4z m581 -476 c101 -36 157
-69 228 -134 102 -93 184 -241 237 -429 23 -81 24 -99 24 -375 0 -319 -3 -342
-76 -525 -90 -225 -276 -401 -465 -440 -35 -8 -115 -11 -208 -8 -142 4 -155 6
-223 35 -160 69 -268 174 -353 348 -92 186 -120 329 -120 613 0 135 5 196 20
273 66 323 229 549 456 635 92 35 160 44 289 39 89 -3 127 -10 191 -32z"/>
<path d="M36609 4126 c-157 -33 -339 -109 -454 -191 -77 -54 -190 -175 -233
-247 -75 -127 -110 -297 -92 -447 40 -313 224 -521 563 -635 76 -25 155 -45
542 -136 222 -52 325 -89 390 -138 128 -96 165 -245 96 -380 -30 -59 -119
-140 -196 -178 -99 -49 -183 -64 -361 -64 -127 0 -163 4 -220 21 -182 56 -284
146 -349 306 -36 87 -11 85 -347 32 -229 -37 -217 -25 -173 -155 92 -273 296
-474 578 -569 150 -50 250 -66 449 -72 206 -6 317 4 471 42 216 53 373 139
512 279 153 155 214 291 223 498 12 297 -104 499 -375 654 -105 60 -232 100
-614 193 -179 44 -361 94 -406 112 -104 40 -168 90 -207 159 -28 49 -31 64
-31 135 0 126 49 209 169 287 86 55 170 79 306 85 139 7 252 -12 347 -57 81
-37 186 -140 231 -226 17 -34 38 -66 45 -72 10 -9 71 -1 238 28 123 22 228 40
233 40 29 0 -43 185 -115 295 -121 186 -303 314 -541 381 -88 25 -107 27 -353
30 -190 2 -278 -1 -326 -10z"/>
<path d="M41140 4124 c-161 -34 -340 -112 -455 -199 -217 -162 -381 -392 -469
-657 -65 -195 -71 -240 -71 -568 0 -328 6 -373 71 -568 113 -341 331 -597 627
-737 182 -86 376 -125 625 -125 417 0 739 132 963 394 93 108 208 333 180 351
-5 2 -107 23 -227 45 -120 22 -231 43 -246 46 -23 5 -29 0 -48 -39 -88 -177
-247 -297 -441 -333 -105 -20 -343 -14 -433 11 -238 66 -444 285 -510 540 -14
53 -36 211 -36 258 0 16 54 17 998 17 l997 0 -3 92 c-13 465 -71 726 -213 956
-59 96 -192 240 -287 311 -134 99 -306 174 -472 205 -107 21 -456 21 -550 0z
m408 -434 c46 -6 107 -20 135 -31 77 -31 210 -122 262 -182 91 -104 166 -295
178 -454 l5 -63 -729 0 -729 0 0 24 c0 53 53 225 96 315 38 78 61 109 128 177
189 189 373 249 654 214z"/>
<path d="M14733 3118 c5 -967 5 -996 26 -1091 82 -377 289 -612 621 -707 152
-44 446 -36 592 15 178 61 365 216 464 383 27 45 53 81 59 79 12 -4 22 -145
24 -334 l1 -143 260 0 260 0 0 1395 0 1395 -270 0 -270 0 0 -894 0 -894 -36
-94 c-60 -158 -135 -256 -260 -338 -192 -126 -436 -143 -633 -44 -136 68 -257
236 -281 389 -8 45 -13 393 -17 973 l-6 902 -269 0 -270 0 5 -992z"/>
<path d="M21620 2715 l0 -1395 268 2 267 3 3 1393 2 1392 -270 0 -270 0 0
-1395z"/>
<path d="M24357 4104 c-7 -7 -26 48 542 -1526 254 -703 461 -1286 461 -1296 0
-26 -83 -241 -122 -315 -38 -71 -126 -165 -180 -190 -83 -39 -174 -42 -359
-11 l-36 6 -60 -213 c-42 -146 -58 -218 -51 -226 5 -7 44 -20 86 -30 61 -14
119 -18 272 -18 225 0 271 9 415 81 205 101 346 267 446 524 97 247 416 1116
756 2050 200 553 377 1040 393 1083 20 55 25 80 17 83 -7 2 -138 3 -291 2
l-279 -3 -184 -565 c-339 -1041 -513 -1566 -525 -1578 -9 -9 -17 1 -36 46 -28
67 -251 739 -512 1540 l-184 562 -281 0 c-155 0 -284 -3 -288 -6z"/>
<path d="M49400 2715 l0 -1395 275 0 275 0 0 1395 0 1395 -275 0 -275 0 0
-1395z"/>
</g>
</svg>
